# xmcd
# 
# Track frame offsets:
#     183
#     17155
#     34553
#     56098
#     77853
#     92605
#     110828
#     127628
#     144650
#     165150
#     182968
#     198568
#     214713
# 
# Disc length: 3084
# 
# Revision: 3
# Processed by: cddbd v1.5.2PL0 Copyright (c) Steve Scherf et al.
# Submitted via: fre:ac v1.0.17
# 
DISCID=ad0c0a0d
DTITLE=Blue Blot - Where Do We Go
DYEAR=1992
DGENRE=Blues
TTITLE0=I Never Can Tell About You
TTITLE1=Pretty Good
TTITLE2=Where Do We Go From Here
TTITLE3=IRS Blues
TTITLE4=Hold The Line
TTITLE5=Let Me Be The One
TTITLE6=Move On Up
TTITLE7=Bad Luck Hand
TTITLE8=Song For You
TTITLE9=New Blunk (New Love 's A Healer)
TTITLE10=I Hold On To Love
TTITLE11=Sixteen Tons
TTITLE12=Simply Beautiful
EXTD=
EXTT0=
EXTT1=
EXTT2=
EXTT3=
EXTT4=
EXTT5=
EXTT6=
EXTT7=
EXTT8=
EXTT9=
EXTT10=
EXTT11=
EXTT12=
PLAYORDER=
